<svg width="36" height="36" viewBox="0 0 36 36" fill="none" xmlns="http://www.w3.org/2000/svg">
<rect width="36" height="36" rx="6" fill="url(#paint0_linear_1213_8655)"/>
<path opacity="0.2" d="M26.124 17.375V23C26.124 23.1658 26.0582 23.3247 25.941 23.4419C25.8238 23.5592 25.6648 23.625 25.499 23.625H10.499C10.3333 23.625 10.1743 23.5592 10.0571 23.4419C9.93987 23.3247 9.87402 23.1658 9.87402 23V17.375H26.124Z" fill="white"/>
<path d="M25.499 13H21.749V12.375C21.749 11.8777 21.5515 11.4008 21.1998 11.0492C20.8482 10.6975 20.3713 10.5 19.874 10.5H16.124C15.6267 10.5 15.1498 10.6975 14.7982 11.0492C14.4466 11.4008 14.249 11.8777 14.249 12.375V13H10.499C10.1675 13 9.84956 13.1317 9.61514 13.3661C9.38072 13.6005 9.24902 13.9185 9.24902 14.25V23C9.24902 23.3315 9.38072 23.6495 9.61514 23.8839C9.84956 24.1183 10.1675 24.25 10.499 24.25H25.499C25.8305 24.25 26.1485 24.1183 26.3829 23.8839C26.6173 23.6495 26.749 23.3315 26.749 23V14.25C26.749 13.9185 26.6173 13.6005 26.3829 13.3661C26.1485 13.1317 25.8305 13 25.499 13ZM15.499 12.375C15.499 12.2092 15.5649 12.0503 15.6821 11.9331C15.7993 11.8158 15.9583 11.75 16.124 11.75H19.874C20.0398 11.75 20.1988 11.8158 20.316 11.9331C20.4332 12.0503 20.499 12.2092 20.499 12.375V13H15.499V12.375ZM10.499 14.25H25.499V16.75H22.999V16.125C22.999 15.9592 22.9332 15.8003 22.816 15.6831C22.6988 15.5658 22.5398 15.5 22.374 15.5C22.2083 15.5 22.0493 15.5658 21.9321 15.6831C21.8149 15.8003 21.749 15.9592 21.749 16.125V16.75H14.249V16.125C14.249 15.9592 14.1832 15.8003 14.066 15.6831C13.9488 15.5658 13.7898 15.5 13.624 15.5C13.4583 15.5 13.2993 15.5658 13.1821 15.6831C13.0649 15.8003 12.999 15.9592 12.999 16.125V16.75H10.499V14.25ZM25.499 23H10.499V18H12.999V18.625C12.999 18.7908 13.0649 18.9497 13.1821 19.0669C13.2993 19.1842 13.4583 19.25 13.624 19.25C13.7898 19.25 13.9488 19.1842 14.066 19.0669C14.1832 18.9497 14.249 18.7908 14.249 18.625V18H21.749V18.625C21.749 18.7908 21.8149 18.9497 21.9321 19.0669C22.0493 19.1842 22.2083 19.25 22.374 19.25C22.5398 19.25 22.6988 19.1842 22.816 19.0669C22.9332 18.9497 22.999 18.7908 22.999 18.625V18H25.499V23Z" fill="white"/>
<defs>
<linearGradient id="paint0_linear_1213_8655" x1="0" y1="0" x2="36" y2="36" gradientUnits="userSpaceOnUse">
<stop stop-color="#FF5630"/>
<stop offset="1" stop-color="#B71D18"/>
</linearGradient>
</defs>
</svg>
