<svg width="36" height="36" viewBox="0 0 36 36" fill="none" xmlns="http://www.w3.org/2000/svg">
<rect width="36" height="36" rx="6" fill="url(#paint0_linear_1213_8669)"/>
<path opacity="0.2" d="M24.25 11.75V24.875C24.25 25.0408 24.1842 25.1997 24.0669 25.3169C23.9497 25.4342 23.7908 25.5 23.625 25.5H12.375C12.2092 25.5 12.0503 25.4342 11.9331 25.3169C11.8158 25.1997 11.75 25.0408 11.75 24.875V11.75C11.75 11.5842 11.8158 11.4253 11.9331 11.3081C12.0503 11.1908 12.2092 11.125 12.375 11.125H15.5C15.0934 11.6655 14.874 12.3237 14.875 13V13.625H21.125V13C21.126 12.3237 20.9066 11.6655 20.5 11.125H23.625C23.7908 11.125 23.9497 11.1908 24.0669 11.3081C24.1842 11.4253 24.25 11.5842 24.25 11.75Z" fill="white"/>
<path d="M21.125 19.875C21.125 20.0408 21.0592 20.1997 20.9419 20.317C20.8247 20.4342 20.6658 20.5 20.5 20.5H15.5C15.3342 20.5 15.1753 20.4342 15.0581 20.317C14.9408 20.1997 14.875 20.0408 14.875 19.875C14.875 19.7092 14.9408 19.5503 15.0581 19.4331C15.1753 19.3159 15.3342 19.25 15.5 19.25H20.5C20.6658 19.25 20.8247 19.3159 20.9419 19.4331C21.0592 19.5503 21.125 19.7092 21.125 19.875ZM20.5 16.75H15.5C15.3342 16.75 15.1753 16.8159 15.0581 16.9331C14.9408 17.0503 14.875 17.2092 14.875 17.375C14.875 17.5408 14.9408 17.6997 15.0581 17.817C15.1753 17.9342 15.3342 18 15.5 18H20.5C20.6658 18 20.8247 17.9342 20.9419 17.817C21.0592 17.6997 21.125 17.5408 21.125 17.375C21.125 17.2092 21.0592 17.0503 20.9419 16.9331C20.8247 16.8159 20.6658 16.75 20.5 16.75ZM24.875 11.75V24.875C24.875 25.2065 24.7433 25.5245 24.5089 25.7589C24.2745 25.9933 23.9565 26.125 23.625 26.125H12.375C12.0435 26.125 11.7255 25.9933 11.4911 25.7589C11.2567 25.5245 11.125 25.2065 11.125 24.875V11.75C11.125 11.4185 11.2567 11.1005 11.4911 10.8661C11.7255 10.6317 12.0435 10.5 12.375 10.5H15.2078C15.559 10.1068 15.9892 9.79224 16.4704 9.57685C16.9516 9.36146 17.4728 9.25012 18 9.25012C18.5272 9.25012 19.0484 9.36146 19.5296 9.57685C20.0108 9.79224 20.441 10.1068 20.7922 10.5H23.625C23.9565 10.5 24.2745 10.6317 24.5089 10.8661C24.7433 11.1005 24.875 11.4185 24.875 11.75ZM15.5 13H20.5C20.5 12.337 20.2366 11.7011 19.7678 11.2322C19.2989 10.7634 18.663 10.5 18 10.5C17.337 10.5 16.7011 10.7634 16.2322 11.2322C15.7634 11.7011 15.5 12.337 15.5 13ZM23.625 11.75H21.5352C21.6774 12.1514 21.75 12.5742 21.75 13V13.625C21.75 13.7908 21.6842 13.9497 21.5669 14.067C21.4497 14.1842 21.2908 14.25 21.125 14.25H14.875C14.7092 14.25 14.5503 14.1842 14.4331 14.067C14.3158 13.9497 14.25 13.7908 14.25 13.625V13C14.25 12.5742 14.3226 12.1514 14.4648 11.75H12.375V24.875H23.625V11.75Z" fill="white"/>
<defs>
<linearGradient id="paint0_linear_1213_8669" x1="0" y1="0" x2="36" y2="36" gradientUnits="userSpaceOnUse">
<stop stop-color="#FFAB00"/>
<stop offset="1" stop-color="#B76E00"/>
</linearGradient>
</defs>
</svg>
