<svg width="36" height="36" viewBox="0 0 36 36" fill="none" xmlns="http://www.w3.org/2000/svg">
<rect width="36" height="36" rx="6" fill="#0E98D8"/>
<path opacity="0.2" d="M24.25 11.125H11.75C11.5842 11.125 11.4253 11.1908 11.3081 11.3081C11.1908 11.4253 11.125 11.5842 11.125 11.75V24.25C11.125 24.4158 11.1908 24.5747 11.3081 24.6919C11.4253 24.8092 11.5842 24.875 11.75 24.875H24.25C24.4158 24.875 24.5747 24.8092 24.6919 24.6919C24.8092 24.5747 24.875 24.4158 24.875 24.25V11.75C24.875 11.5842 24.8092 11.4253 24.6919 11.3081C24.5747 11.1908 24.4158 11.125 24.25 11.125ZM12.5141 24.875C12.7974 23.632 13.4945 22.5221 14.4912 21.7272C15.488 20.9324 16.7251 20.4996 18 20.5C17.3819 20.5 16.7777 20.3167 16.2638 19.9733C15.7499 19.63 15.3494 19.1419 15.1129 18.5709C14.8764 17.9999 14.8145 17.3715 14.935 16.7653C15.0556 16.1592 15.3533 15.6023 15.7903 15.1653C16.2273 14.7283 16.7842 14.4306 17.3903 14.31C17.9965 14.1895 18.6249 14.2514 19.1959 14.4879C19.7669 14.7244 20.255 15.1249 20.5983 15.6388C20.9417 16.1527 21.125 16.7569 21.125 17.375C21.125 18.2038 20.7958 18.9987 20.2097 19.5847C19.6237 20.1708 18.8288 20.5 18 20.5C19.2749 20.4996 20.512 20.9324 21.5088 21.7272C22.5055 22.5221 23.2026 23.632 23.4859 24.875H12.5141Z" fill="white"/>
<path d="M24.25 10.5H11.75C11.4185 10.5 11.1005 10.6317 10.8661 10.8661C10.6317 11.1005 10.5 11.4185 10.5 11.75V24.25C10.5 24.5815 10.6317 24.8995 10.8661 25.1339C11.1005 25.3683 11.4185 25.5 11.75 25.5H24.25C24.5815 25.5 24.8995 25.3683 25.1339 25.1339C25.3683 24.8995 25.5 24.5815 25.5 24.25V11.75C25.5 11.4185 25.3683 11.1005 25.1339 10.8661C24.8995 10.6317 24.5815 10.5 24.25 10.5ZM15.5 17.375C15.5 16.8805 15.6466 16.3972 15.9213 15.9861C16.196 15.575 16.5865 15.2545 17.0433 15.0653C17.5001 14.8761 18.0028 14.8266 18.4877 14.923C18.9727 15.0195 19.4181 15.2576 19.7678 15.6072C20.1174 15.9569 20.3555 16.4023 20.452 16.8873C20.5484 17.3722 20.4989 17.8749 20.3097 18.3317C20.1205 18.7885 19.8 19.179 19.3889 19.4537C18.9778 19.7284 18.4945 19.875 18 19.875C17.337 19.875 16.7011 19.6116 16.2322 19.1428C15.7634 18.6739 15.5 18.038 15.5 17.375ZM13.3648 24.25C13.6849 23.4628 14.1991 22.7694 14.8594 22.2344C15.7487 21.5165 16.8571 21.1249 18 21.1249C19.1429 21.1249 20.2513 21.5165 21.1406 22.2344C21.8009 22.7694 22.3151 23.4628 22.6352 24.25H13.3648ZM24.25 24.25H23.9633C23.6855 23.3652 23.2139 22.5535 22.5829 21.8738C21.9519 21.1942 21.1774 20.6638 20.3156 20.3211C20.9291 19.8394 21.3772 19.1785 21.5974 18.4302C21.8177 17.6819 21.7991 16.8836 21.5443 16.1464C21.2895 15.4092 20.8111 14.7698 20.1759 14.3172C19.5406 13.8647 18.78 13.6215 18 13.6215C17.22 13.6215 16.4594 13.8647 15.8241 14.3172C15.1889 14.7698 14.7105 15.4092 14.4557 16.1464C14.2009 16.8836 14.1823 17.6819 14.4026 18.4302C14.6228 19.1785 15.0709 19.8394 15.6844 20.3211C14.8226 20.6638 14.0481 21.1942 13.4171 21.8738C12.7861 22.5535 12.3145 23.3652 12.0367 24.25H11.75V11.75H24.25V24.25Z" fill="white"/>
</svg>
