<svg width="36" height="36" viewBox="0 0 36 36" fill="none" xmlns="http://www.w3.org/2000/svg">
<rect width="36" height="36" rx="6" fill="url(#paint0_linear_1768_10046)"/>
<path opacity="0.2" d="M18.0001 10.5V18L11.5048 21.75C10.8465 20.6098 10.5 19.3165 10.5 18C10.5 16.6834 10.8466 15.3901 11.5048 14.2499C12.1631 13.1098 13.1099 12.163 14.2501 11.5048C15.3902 10.8465 16.6836 10.5 18.0001 10.5Z" fill="white"/>
<path d="M18 9.875C16.393 9.875 14.8221 10.3515 13.486 11.2443C12.1498 12.1371 11.1084 13.406 10.4935 14.8907C9.87852 16.3753 9.71762 18.009 10.0311 19.5851C10.3446 21.1612 11.1185 22.6089 12.2548 23.7452C13.3911 24.8815 14.8388 25.6554 16.4149 25.9689C17.991 26.2824 19.6247 26.1215 21.1093 25.5065C22.594 24.8916 23.8629 23.8502 24.7557 22.514C25.6485 21.1779 26.125 19.607 26.125 18C26.1227 15.8458 25.266 13.7805 23.7427 12.2573C22.2195 10.734 20.1542 9.87727 18 9.875ZM23.6148 14.0367L18.625 16.9172V11.1539C19.6158 11.2447 20.5751 11.5495 21.4366 12.0473C22.2981 12.545 23.0413 13.2238 23.6148 14.0367ZM17.375 11.1539V17.6383L11.7586 20.8805C11.2975 19.8811 11.0831 18.7857 11.1334 17.6863C11.1837 16.5869 11.4972 15.5156 12.0475 14.5625C12.5978 13.6094 13.369 12.8023 14.296 12.2092C15.2231 11.6161 16.279 11.2542 17.375 11.1539ZM18 24.875C16.8994 24.8745 15.8149 24.6099 14.8379 24.1032C13.8608 23.5965 13.0197 22.8626 12.3852 21.9633L24.2414 15.1188C24.7249 16.1662 24.937 17.3185 24.8582 18.4695C24.7795 19.6204 24.4123 20.7331 23.7906 21.7049C23.1689 22.6767 22.3126 23.4765 21.3007 24.0305C20.2888 24.5844 19.1537 24.8749 18 24.875Z" fill="white"/>
<defs>
<linearGradient id="paint0_linear_1768_10046" x1="0" y1="0" x2="36" y2="36" gradientUnits="userSpaceOnUse">
<stop stop-color="#00A76F"/>
<stop offset="1" stop-color="#007867"/>
</linearGradient>
</defs>
</svg>
