<svg width="195" height="204" viewBox="0 0 195 204" fill="none" xmlns="http://www.w3.org/2000/svg">
<path d="M58.1774 76.9314C62.6374 84.6414 66.6574 91.6914 70.7574 98.6814C77.5174 110.211 84.2074 121.771 91.1574 133.191C94.3774 138.491 99.4474 138.481 102.667 133.131C110.727 119.731 118.577 106.201 126.407 92.6714C129.327 87.6214 132.947 82.9414 135.077 76.9314C129.967 76.9314 125.197 76.8714 120.427 76.9514C117.737 77.0014 117.137 76.5114 118.007 73.5214C122.767 57.1414 127.777 40.8414 133.067 24.6314C133.527 23.2314 133.607 22.0514 135.747 21.9414C163.417 20.4414 186.497 34.5314 193.077 62.8214C196.447 77.3214 192.097 90.7714 184.457 103.411C174.167 120.421 164.457 137.761 154.327 154.871C147.777 165.941 142.417 177.861 133.847 187.531C127.377 194.831 118.687 199.601 109.097 201.661C94.2274 204.841 80.0674 202.631 67.3674 193.781C59.6974 188.441 54.5674 180.951 49.9674 172.961C39.7174 155.171 28.9174 137.691 19.0174 119.721C12.4574 107.821 3.61742 96.9314 1.04742 83.0614C-2.02258 66.5214 1.57745 51.7614 12.8874 39.0414C24.7374 25.7214 39.9174 21.2814 57.1774 21.9314C59.6674 22.0214 60.7374 22.9414 61.3674 25.0514C66.1374 40.9214 70.8174 56.8114 75.7874 72.6114C76.8474 75.9714 76.4374 77.1314 72.8074 76.9814C68.3174 76.8114 63.8174 76.9414 58.1874 76.9414L58.1774 76.9314Z" fill="#0062FD"/>
<path d="M97.0772 0.0215997C102.737 0.0215997 108.397 -0.0383998 114.057 0.0416002C119.937 0.1316 123.387 4.8516 120.787 9.9916C115.217 21.0016 109.337 31.8616 103.197 42.5616C100.287 47.6216 93.7173 47.6616 90.8073 42.6216C84.6273 31.9516 78.7573 21.0916 73.1373 10.1116C70.4673 4.8916 73.7573 0.1516 79.6073 0.0516004C85.4273 -0.0483996 91.2573 0.0315999 97.0873 0.0315999L97.0772 0.0215997Z" fill="#0044CC"/>
</svg>
