<svg width="96" height="72" viewBox="0 0 96 72" fill="none" xmlns="http://www.w3.org/2000/svg">
<path opacity="0.05" d="M58.6015 41.2383C58.1519 41.7729 57.6664 41.7639 57.377 41.6886L57.3877 41.4117C57.3877 41.4117 58.5836 40.8652 58.5531 40.98C58.5417 41.0231 58.5645 41.1265 58.6015 41.2383Z" fill="#FF5630"/>
<path opacity="0.05" d="M61.879 41.8434C61.1154 42.2847 60.6675 41.7675 60.5635 41.621C60.6275 41.4529 60.7237 41.1803 60.704 41.1026C60.6753 40.9871 61.8694 41.5337 61.8694 41.5337L61.879 41.8434Z" fill="#FF5630"/>
<path opacity="0.05" d="M61.0605 37.4407C61.0605 37.4407 61.787 37.0222 61.9455 37.2105C62.104 37.3989 61.0605 37.4407 61.0605 37.4407Z" fill="#FF5630"/>
<path opacity="0.05" d="M61.4997 37.671C61.4997 37.671 61.3801 37.7308 61.6438 37.8073C61.9075 37.8838 61.4997 37.671 61.4997 37.671Z" fill="#FF5630"/>
<path opacity="0.05" d="M57.1062 36.5199C57.0816 36.5271 57.7107 36.9444 58.2787 36.5988C58.2763 36.5988 57.2479 36.4768 57.1062 36.5199Z" fill="#FF5630"/>
<path opacity="0.05" d="M58.2482 37.3182C58.2482 37.3182 58.076 37.6566 57.7233 37.7068C57.3705 37.7571 58.2482 37.3182 58.2482 37.3182Z" fill="#FF5630"/>
<path opacity="0.05" d="M60.5566 38.0524C60.5566 38.0524 61.3842 39.3679 61.2257 39.6782C61.0673 39.9886 60.5566 38.0524 60.5566 38.0524Z" fill="#FF5630"/>
<path opacity="0.05" d="M58.924 43.2832C58.924 43.3568 58.924 43.4256 58.9168 43.4824C58.8953 43.7484 58.2405 43.648 58.2405 43.648C57.6426 43.7311 57.4273 43.4441 57.3562 43.1696C57.3338 43.0805 57.3227 42.9889 57.3233 42.897C57.3229 42.8422 57.3265 42.7874 57.334 42.7331V42.6787C57.4629 42.6399 57.6027 42.6684 57.706 42.7547C57.972 42.9705 58.3248 42.8049 58.3248 42.8049C58.3248 42.8049 58.5837 42.8264 58.6836 42.9125C58.7398 42.961 58.8325 42.8444 58.903 42.7331C58.9072 42.8049 58.9138 42.9346 58.918 43.0734C58.9228 43.1445 58.924 43.2163 58.924 43.2832Z" fill="#FF5630"/>
<path opacity="0.05" d="M57.874 43.2677C57.874 43.2677 57.6946 43.4435 57.3561 43.172C57.3338 43.0829 57.3227 42.9913 57.3233 42.8994C57.4961 43.0309 57.8166 43.2677 57.874 43.2677Z" fill="#FF5630"/>
<path opacity="0.05" d="M58.9238 43.2832C58.8943 43.306 58.8567 43.3156 58.8199 43.3097C58.7832 43.3038 58.7504 43.283 58.7295 43.2521C58.7993 43.1991 58.8634 43.1389 58.9208 43.0728C58.9226 43.1445 58.9238 43.2163 58.9238 43.2832Z" fill="#FF5630"/>
<path opacity="0.05" d="M60.3273 43.4064C60.3273 43.4806 60.3273 43.5494 60.3339 43.6056C60.3554 43.8722 61.0101 43.7712 61.0101 43.7712C61.6081 43.8549 61.8233 43.5679 61.8945 43.2928C61.9297 43.1501 61.9373 43.0019 61.9166 42.8563V42.8019C61.7876 42.7637 61.6479 42.7922 61.5441 42.8779C61.278 43.0937 60.9258 42.9281 60.9258 42.9281C60.9258 42.9281 60.6669 42.9502 60.5671 43.0363C60.5109 43.0848 60.4182 42.9682 60.3482 42.8569C60.344 42.9287 60.3369 43.0584 60.3327 43.1972C60.3279 43.2671 60.3267 43.3389 60.3273 43.4064Z" fill="#FF5630"/>
<path opacity="0.05" d="M61.3779 43.3897C61.3779 43.3897 61.5573 43.5655 61.8952 43.294C61.9177 43.2051 61.929 43.1137 61.9286 43.022C61.7552 43.1529 61.4347 43.3897 61.3779 43.3897Z" fill="#FF5630"/>
<path opacity="0.05" d="M60.3273 43.4064C60.3567 43.4291 60.3942 43.4387 60.4309 43.4328C60.4676 43.4269 60.5002 43.4061 60.521 43.3753C60.4512 43.3223 60.3871 43.2622 60.3297 43.1959C60.3279 43.2671 60.3267 43.3388 60.3273 43.4064Z" fill="#FF5630"/>
<path fill-rule="evenodd" clip-rule="evenodd" d="M31.5189 55.8921C31.374 55.7177 31.3075 55.4911 31.3353 55.2661L33.9746 33.6701L34.1935 31.8763C34.2442 31.4635 34.5932 31.1524 35.0091 31.1492L42.7399 31.0977C42.9623 31.0964 43.1747 31.0055 43.3293 30.8456C43.4839 30.6858 43.5676 30.4704 43.5615 30.2481L43.5585 30.1661C43.5509 29.9419 43.6346 29.7242 43.7905 29.5629C43.9464 29.4016 44.1611 29.3105 44.3854 29.3105H52.5091C52.9651 29.3105 53.3351 29.6796 53.3361 30.1356C53.336 30.1728 53.3336 30.21 53.3289 30.2469C53.2977 30.4796 53.367 30.7146 53.5194 30.8933C53.6718 31.0719 53.893 31.1773 54.1277 31.1832L61.9297 31.3824C62.1698 31.3883 62.3954 31.4983 62.5478 31.6838C62.7003 31.8693 62.7645 32.112 62.7238 32.3486L58.8234 55.1303L58.7499 55.5609C58.7317 55.6708 58.691 55.7759 58.6303 55.8694L31.5189 55.8921Z" fill="#004B50"/>
<rect x="55.0625" y="24.7352" width="4.5683" height="15.5053" transform="rotate(34.64 55.0625 24.7352)" fill="white"/>
<rect x="55.334" y="25.3396" width="3.22514" height="3.22514" transform="rotate(34.804 55.334 25.3396)" fill="#FFAB00"/>
<rect opacity="0.5" x="53.2588" y="28.5309" width="3.2295" height="3.2295" transform="rotate(34.64 53.2588 28.5309)" fill="#FFAB00"/>
<rect opacity="0.3" x="51.042" y="31.7388" width="3.2295" height="3.2295" transform="rotate(34.64 51.042 31.7388)" fill="#FFAB00"/>
<rect x="49.7529" y="23.9362" width="4.5683" height="15.4467" transform="rotate(16.29 49.7529 23.9362)" fill="white"/>
<rect x="50.3281" y="24.3642" width="3.2295" height="3.2295" transform="rotate(16.29 50.3281 24.3642)" fill="#FF5630"/>
<rect opacity="0.5" x="49.2344" y="28.1066" width="3.2295" height="3.2295" transform="rotate(16.29 49.2344 28.1066)" fill="#FF5630"/>
<rect opacity="0.3" x="48.1406" y="31.8483" width="3.2295" height="3.2295" transform="rotate(16.29 48.1406 31.8483)" fill="#FF5630"/>
<rect x="46.6465" y="24.17" width="4.5683" height="15.4467" transform="rotate(4.6 46.6465 24.17)" fill="white"/>
<rect x="47.2949" y="24.4728" width="3.2295" height="3.2295" transform="rotate(4.6 47.2949 24.4728)" fill="#00B8D9"/>
<rect opacity="0.5" x="46.9814" y="28.3583" width="3.2295" height="3.2295" transform="rotate(4.6 46.9814 28.3583)" fill="#00B8D9"/>
<rect opacity="0.3" x="46.6689" y="32.2451" width="3.2295" height="3.2295" transform="rotate(4.6 46.6689 32.2451)" fill="#00B8D9"/>
<rect x="44.5977" y="24.7891" width="4.5683" height="15.4467" transform="rotate(-2.61 44.5977 24.7891)" fill="white"/>
<rect x="45.2783" y="25.0072" width="3.2295" height="3.2295" transform="rotate(-2.61 45.2783 25.0072)" fill="#0062FD"/>
<rect opacity="0.5" x="45.582" y="28.7785" width="3.23354" height="3.23353" transform="rotate(-2.8624 45.582 28.7785)" fill="#0062FD"/>
<rect opacity="0.3" x="45.6328" y="32.797" width="3.2295" height="3.2295" transform="rotate(-2.61 45.6328 32.797)" fill="#0062FD"/>
<path d="M46.5355 45.1453L42.4766 46.7155L36.5444 49.0086C36.3202 48.59 35.9901 48.0244 35.5817 47.3493C34.1766 45.0209 31.8518 41.3991 29.7817 38.2163C27.4497 34.6286 25.4424 31.6012 25.4424 31.6012L26.8954 31.1826L38.7646 27.7367L46.5355 45.1453Z" fill="#F4F6F8"/>
<path opacity="0.1" d="M46.536 45.1453L42.4771 46.7155C40.2097 47.1878 37.8959 47.4005 35.5804 47.3493C34.1753 45.0209 31.8505 41.3991 29.7804 38.2163L26.8965 31.1803L38.7651 27.7367L46.536 45.1453Z" fill="black"/>
<path d="M49.5552 44.1682C49.5552 44.1682 43.2499 47.8982 33.8359 47.0545L26.3311 28.7574L29.9277 28.1391L42.3614 26.0038L49.4171 43.8124L49.5552 44.1682Z" fill="#0062FD"/>
<path opacity="0.1" d="M49.4147 43.8148C47.9301 43.8878 46.2122 43.8806 44.4841 43.6743C42.6137 43.4542 40.7326 43.001 39.1199 42.1699C37.7716 41.4756 36.6187 40.7204 35.6136 39.8146C32.9988 37.4628 31.3807 34.0988 29.9277 28.1415L42.3614 26.0062L49.4147 43.8148Z" fill="#FF5630"/>
<path d="M54.0404 42.7918C54.0404 42.7918 49.3926 43.7018 44.6616 43.1416C42.7913 42.9215 40.9101 42.4683 39.2975 41.6371C37.9491 40.9429 36.7969 40.1877 35.7911 39.2818C32.5551 36.3704 30.8461 31.9086 29.084 22.8981C29.084 22.8981 36.8106 24.7631 44.4512 20.678C44.4488 20.681 47.0241 36.7525 54.0404 42.7918Z" fill="white"/>
<g opacity="0.3">
<path d="M33.0811 26.206C33.0811 26.206 39.3643 25.8508 41.1186 24.4965L41.3847 25.3515C41.3847 25.3515 37.2332 27.183 33.0811 27.2051V26.206Z" fill="#0062FD"/>
<path d="M33.0811 30.4275C33.0811 30.4275 39.1645 30.0944 43.7609 27.8742L43.9164 28.2294C43.9164 28.2294 40.2689 30.3587 33.0811 30.916V30.4275Z" fill="#0062FD"/>
<path d="M33.5709 32.0724C33.5709 32.0724 39.6544 31.7394 44.2502 29.5192L44.4057 29.8744C44.4057 29.8744 40.7582 32.0031 33.5709 32.561V32.0724Z" fill="#0062FD"/>
<path d="M34.06 33.7198C34.06 33.7198 40.1434 33.3867 44.7398 31.1665L44.8947 31.5217C44.8947 31.5217 41.2473 33.651 34.06 34.2083V33.7198Z" fill="#0062FD"/>
<path d="M34.5496 35.3671C34.5496 35.3671 40.6331 35.0341 45.2289 32.8139L45.3844 33.1691C45.3844 33.1691 41.7369 35.2984 34.5496 35.8556V35.3671Z" fill="#0062FD"/>
<path d="M35.0387 37.015C35.0387 37.015 41.1222 36.682 45.7186 34.4618L45.8734 34.817C45.8734 34.817 42.226 36.9457 35.0387 37.5035V37.015Z" fill="#0062FD"/>
</g>
<path d="M77.8137 57.4689C77.8137 57.4689 75.2856 57.3164 75.5834 59.0881C75.5834 59.0881 75.5236 59.4008 75.8082 59.5432C75.8082 59.5432 75.8124 59.4116 76.0671 59.4565C76.1579 59.4717 76.2503 59.4762 76.3422 59.4696C76.4661 59.4613 76.584 59.4126 76.6776 59.3309C76.6776 59.3309 77.3886 59.0373 77.6648 57.8761C77.6648 57.8761 77.8693 57.6226 77.8609 57.5574L77.4346 57.7368C77.4346 57.7368 77.5805 58.0447 77.4657 58.3C77.4657 58.3 77.4519 57.7481 77.37 57.7619C77.3533 57.7619 77.1482 57.8683 77.1482 57.8683C77.1482 57.8683 77.3987 58.4065 77.208 58.7939C77.208 58.7939 77.2797 58.1332 77.0681 57.9072L76.7691 58.0824C76.7691 58.0824 77.0621 58.6361 76.8636 59.0881C76.8636 59.0881 76.9144 58.3951 76.7057 58.1248L76.4336 58.3371C76.4336 58.3371 76.7093 58.883 76.5413 59.2579C76.5413 59.2579 76.5192 58.4507 76.3744 58.3897C76.3744 58.3897 76.1353 58.5996 76.1006 58.6887C76.1006 58.6887 76.2889 59.0845 76.1717 59.2938C76.1717 59.2938 76.1 58.7557 76.0414 58.7557C76.0414 58.7557 75.8022 59.1144 75.7795 59.3536C75.7795 59.3536 75.7897 58.9901 75.984 58.7192C75.8471 58.7453 75.7208 58.8108 75.6204 58.9075C75.6204 58.9075 75.6575 58.6552 76.0426 58.6337C76.0426 58.6337 76.2387 58.3634 76.2907 58.3467C76.2907 58.3467 75.9081 58.315 75.676 58.4178C75.676 58.4178 75.8805 58.1786 76.3613 58.2881L76.6298 58.0692C76.6298 58.0692 76.1257 57.9999 75.9122 58.0764C75.9122 58.0764 76.158 57.8659 76.7021 58.0166L76.9945 57.842C76.9945 57.842 76.5652 57.7493 76.3093 57.7822C76.3093 57.7822 76.5789 57.6363 77.0806 57.7942L77.2893 57.7003C77.2893 57.7003 76.9748 57.6405 76.8827 57.6285C76.7906 57.6166 76.7852 57.5939 76.7852 57.5939C76.9846 57.5602 77.1895 57.583 77.3766 57.6596C77.3766 57.6596 77.8209 57.497 77.8137 57.4689Z" fill="#0062FD"/>
<path d="M78.9911 51.6204C78.9911 51.6204 77.5662 51.5343 77.7354 52.5335C77.7176 52.6373 77.7685 52.7408 77.8616 52.79C77.8616 52.79 77.8646 52.7158 78.0081 52.7409C78.0593 52.7494 78.1113 52.7518 78.163 52.7481C78.2328 52.7436 78.2992 52.7163 78.3519 52.6704C78.3519 52.6704 78.7526 52.5048 78.9086 51.85C78.9086 51.85 79.024 51.7071 79.0192 51.6706L78.7801 51.7729C78.7801 51.7729 78.862 51.9469 78.7974 52.091C78.7974 52.091 78.7896 51.7794 78.7436 51.7866C78.734 51.7866 78.6186 51.8464 78.6186 51.8464C78.6186 51.8464 78.7597 52.1454 78.6533 52.3684C78.6533 52.3684 78.694 51.9959 78.5744 51.8679L78.4051 51.9672C78.4051 51.9672 78.5702 52.2793 78.4584 52.5341C78.4584 52.5341 78.4871 52.143 78.3693 51.9911L78.2162 52.1107C78.2162 52.1107 78.3711 52.4186 78.276 52.6297C78.276 52.6297 78.2634 52.1747 78.1821 52.1406C78.124 52.1899 78.072 52.2459 78.0272 52.3074C78.0272 52.3074 78.1337 52.5311 78.0679 52.6489C78.0679 52.6489 78.0272 52.3457 77.9944 52.3445C77.9944 52.3445 77.8604 52.5448 77.8467 52.6823C77.8532 52.5547 77.8929 52.431 77.9621 52.3236C77.8847 52.3381 77.8134 52.3752 77.757 52.43C77.757 52.43 77.7779 52.2877 77.9962 52.2757C77.9962 52.2757 78.1068 52.1233 78.1361 52.1137C78.1361 52.1137 77.9202 52.0958 77.7893 52.1538C77.7893 52.1538 77.9047 52.0198 78.1755 52.0808L78.3274 51.957C78.3274 51.957 78.0428 51.9182 77.9226 51.9612C77.9226 51.9612 78.0613 51.8416 78.3681 51.9289L78.5331 51.8303C78.4061 51.8025 78.2761 51.7914 78.1462 51.7974C78.1462 51.7974 78.2987 51.7149 78.5809 51.804L78.7005 51.7513C78.7005 51.7513 78.5211 51.7161 78.4709 51.7107C78.4207 51.7053 78.4159 51.6909 78.4159 51.6909C78.5284 51.6722 78.6439 51.6851 78.7496 51.728C78.7496 51.728 78.9959 51.6359 78.9911 51.6204Z" fill="#0062FD"/>
<path d="M70.5792 52.4874C70.5792 52.4874 68.8583 52.3833 69.0616 53.5894C69.04 53.7148 69.1015 53.8398 69.2141 53.8991C69.2141 53.8991 69.2141 53.8094 69.3935 53.8393C69.4553 53.8498 69.5181 53.8528 69.5806 53.8483C69.6651 53.8427 69.7453 53.8095 69.809 53.7538C69.809 53.7538 70.2928 53.5541 70.4811 52.7636C70.4811 52.7636 70.6205 52.5914 70.6145 52.5466L70.3209 52.671C70.3209 52.671 70.4201 52.8802 70.3418 53.0542C70.3418 53.0542 70.3322 52.6787 70.2766 52.6871C70.2653 52.6871 70.126 52.76 70.126 52.76C70.126 52.76 70.2964 53.1248 70.1678 53.3903C70.1678 53.3903 70.2168 52.9406 70.0727 52.7864L69.8682 52.9059C69.8682 52.9059 70.0674 53.2832 69.9322 53.5906C69.9322 53.5906 69.9669 53.1188 69.8252 52.9329L69.6398 53.0776C69.6398 53.0776 69.8276 53.4489 69.7128 53.7042C69.7128 53.7042 69.6984 53.1547 69.5998 53.1134C69.5998 53.1134 69.4377 53.2563 69.4132 53.3149C69.4132 53.3149 69.5412 53.5846 69.4616 53.7269C69.4616 53.7269 69.4126 53.361 69.3725 53.3592C69.3725 53.3592 69.2117 53.602 69.1932 53.7676C69.2012 53.614 69.2492 53.4652 69.3325 53.3359C69.2394 53.3536 69.1535 53.3983 69.0855 53.4644C69.0855 53.4644 69.1106 53.2928 69.3725 53.2779C69.3725 53.2779 69.5059 53.0937 69.5418 53.0829C69.5418 53.0829 69.2811 53.0608 69.1232 53.1308C69.1232 53.1308 69.2619 52.9693 69.589 53.0429L69.772 52.8934C69.772 52.8934 69.4294 52.8467 69.2835 52.8982C69.2835 52.8982 69.4509 52.7553 69.8216 52.8599L70.0207 52.7403C70.0207 52.7403 69.7283 52.6775 69.5537 52.7003C69.5537 52.7003 69.7379 52.601 70.0787 52.7086L70.221 52.6446C70.221 52.6446 70.007 52.6028 69.9442 52.5962C69.8814 52.5896 69.8784 52.5723 69.8784 52.5723C70.014 52.5493 70.1534 52.5646 70.2808 52.6165C70.2808 52.6165 70.5846 52.5059 70.5792 52.4874Z" fill="#0062FD"/>
<rect x="55.626" y="25.0028" width="10.2051" height="18.2624" rx="4.73723" transform="rotate(-71.99 55.626 25.0028)" fill="white"/>
<g opacity="0.24">
<path d="M62.598 20.7014C62.598 21.737 61.7584 22.5765 60.7228 22.5765C59.6872 22.5765 58.8477 21.737 58.8477 20.7014C58.8477 19.6658 59.6872 18.8262 60.7228 18.8262C61.7584 18.8262 62.598 19.6658 62.598 20.7014Z" fill="#0062FD"/>
<path d="M65.2093 20.3638L65.3681 19.8753L73.1376 22.4013L72.9788 22.8898L65.2093 20.3638Z" fill="#0062FD"/>
<path d="M64.8044 21.6092L64.9632 21.1207L68.921 22.4074L68.7621 22.8959L64.8044 21.6092Z" fill="#0062FD"/>
<path d="M64.3987 22.8554L64.5575 22.3669L70.9588 24.448L70.8 24.9365L64.3987 22.8554Z" fill="#0062FD"/>
<path d="M63.994 24.101L64.1528 23.6126L71.9222 26.1385L71.7634 26.627L63.994 24.101Z" fill="#0062FD"/>
</g>
<rect opacity="0.5" x="68.8799" y="28.1827" width="0.993187" height="2.26083" transform="rotate(-71.99 68.8799 28.1827)" fill="#0062FD"/>
<path d="M57.3979 44.8874C55.5396 43.6928 55.0016 41.2179 56.1962 39.3597L57.3102 37.6268C58.5048 35.7685 60.9797 35.2305 62.838 36.4251L69.2822 40.5678C71.1405 41.7624 71.6785 44.2373 70.4839 46.0955L69.3699 47.8284C68.1753 49.6867 65.7004 50.2247 63.8421 49.0301L57.3979 44.8874Z" fill="white"/>
<path d="M62.2197 45.4341L65.5719 40.158L66.0902 40.4873L62.738 45.7634L62.2197 45.4341Z" fill="#F4F6F8"/>
<path d="M63.327 46.137L66.6791 40.8609L67.1974 41.1903L63.8453 46.4663L63.327 46.137Z" fill="#F4F6F8"/>
<path d="M55.9854 42.1341L57.5117 39.7317L58.0769 40.0909L56.5506 42.4932L55.9854 42.1341Z" fill="#C4CDD5"/>
<path d="M57.792 42.6207L61.1442 37.3447L61.6625 37.674L58.3103 42.95L57.792 42.6207Z" fill="#C4CDD5"/>
<path d="M58.8992 43.3236L62.2514 38.0475L62.7697 38.3768L59.4175 43.6529L58.8992 43.3236Z" fill="#C4CDD5"/>
<path d="M60.0062 44.0276L63.3584 38.7515L63.8767 39.0808L60.5246 44.3569L60.0062 44.0276Z" fill="#C4CDD5"/>
<path d="M61.1518 45.0475L64.5272 39.7968L65.0431 40.1284L61.6676 45.3791L61.1518 45.0475Z" fill="#C4CDD5"/>
<path d="M67.976 43.1399L68.844 41.7737L70.2102 42.6417L69.3422 44.0079L67.976 43.1399Z" fill="#C4CDD5"/>
<path d="M53.8548 33.752L44.7015 33.8507C44.3589 33.8543 44.0829 34.1329 44.0826 34.4756V35.232C44.0824 35.5712 43.8118 35.8484 43.4727 35.8568L36.8678 36.0153C36.5798 36.0225 36.3241 35.8318 36.249 35.5537L35.9386 34.4134C35.8642 34.1383 35.6131 33.9484 35.3281 33.9518L26.5055 34.0468C26.3225 34.0486 26.1495 34.1305 26.0322 34.2709C25.9148 34.4112 25.8649 34.596 25.8956 34.7763L29.445 55.6661C29.4958 55.9659 29.755 56.1857 30.059 56.1869L57.9316 56.3065C58.1184 56.3071 58.2957 56.2243 58.415 56.0806C58.5343 55.9368 58.5831 55.7473 58.5481 55.5639L54.4749 34.2597C54.4182 33.9628 54.1571 33.749 53.8548 33.752V33.752Z" fill="url(#paint0_linear_1205_6039)"/>
<g opacity="0.2">
<path d="M77.8611 59.6975C77.8611 59.8646 77.0601 60 76.0721 60C75.084 60 74.283 59.8646 74.283 59.6975C74.283 59.5304 75.084 59.3949 76.0721 59.3949C77.0601 59.3949 77.8611 59.5304 77.8611 59.6975Z" fill="#0062FD"/>
<path d="M79.0188 52.8767C79.0188 52.9708 78.5672 53.0471 78.0101 53.0471C77.453 53.0471 77.0014 52.9708 77.0014 52.8767C77.0014 52.7826 77.453 52.7063 78.0101 52.7063C78.5672 52.7063 79.0188 52.7826 79.0188 52.8767Z" fill="#0062FD"/>
<path d="M70.6118 54.0044C70.6118 54.118 70.0665 54.2101 69.3938 54.2101C68.7211 54.2101 68.1758 54.118 68.1758 54.0044C68.1758 53.8908 68.7211 53.7988 69.3938 53.7988C70.0665 53.7988 70.6118 53.8908 70.6118 54.0044Z" fill="#0062FD"/>
<path d="M24.8876 51.7328C24.8876 51.8065 24.4536 51.8662 23.9183 51.8662C23.383 51.8662 22.949 51.8065 22.949 51.7328C22.949 51.6592 23.383 51.5995 23.9183 51.5995C24.4536 51.5995 24.8876 51.6592 24.8876 51.7328Z" fill="#0062FD"/>
<path d="M21.1749 52.109C21.1749 52.1826 20.7409 52.2423 20.2056 52.2423C19.6703 52.2423 19.2363 52.1826 19.2363 52.109C19.2363 52.0353 19.6703 51.9756 20.2056 51.9756C20.7409 51.9756 21.1749 52.0353 21.1749 52.109Z" fill="#0062FD"/>
<path d="M22.3804 53.1811C22.3804 53.2332 22.072 53.2755 21.6916 53.2755C21.3111 53.2755 21.0027 53.2332 21.0027 53.1811C21.0027 53.1289 21.3111 53.0866 21.6916 53.0866C22.072 53.0866 22.3804 53.1289 22.3804 53.1811Z" fill="#0062FD"/>
<path d="M18.5271 53.0866C18.5271 53.1388 18.2187 53.1811 17.8382 53.1811C17.4578 53.1811 17.1494 53.1388 17.1494 53.0866C17.1494 53.0344 17.4578 52.9921 17.8382 52.9921C18.2187 52.9921 18.5271 53.0344 18.5271 53.0866Z" fill="#0062FD"/>
</g>
<path d="M17.4588 52.8713C17.4155 52.8359 17.384 52.7881 17.3685 52.7344C17.3533 52.6787 17.3799 52.6201 17.4319 52.5951C17.4917 52.5729 17.5515 52.613 17.5993 52.6548C17.6472 52.6967 17.7016 52.741 17.7614 52.7308C17.6968 52.6723 17.6678 52.5842 17.6848 52.4988C17.6873 52.4814 17.6945 52.465 17.7058 52.4515C17.7381 52.4169 17.7967 52.4318 17.8355 52.4593C17.9551 52.5454 17.9928 52.7122 17.9934 52.8629C17.9994 52.8077 17.9994 52.752 17.9934 52.6967C17.9902 52.6401 18.0153 52.5857 18.0603 52.5514C18.0895 52.5355 18.1223 52.5277 18.1554 52.5287C18.211 52.5207 18.2673 52.5368 18.3103 52.5729C18.3522 52.63 18.3497 52.7082 18.3043 52.7625C18.2585 52.8139 18.2043 52.8571 18.1441 52.8904C18.0983 52.918 18.0593 52.9553 18.0299 52.9999C18.0262 53.0058 18.0234 53.0123 18.0215 53.019H17.6735C17.5956 52.9797 17.5234 52.93 17.4588 52.8713Z" fill="#0062FD"/>
<path d="M23.5249 51.5666C23.4815 51.5315 23.4499 51.4839 23.4346 51.4303C23.4193 51.3748 23.4457 51.3162 23.4974 51.2909C23.5572 51.2688 23.617 51.3089 23.6648 51.3507C23.7127 51.3926 23.7665 51.438 23.8281 51.4291C23.7635 51.3708 23.7342 51.283 23.7509 51.1977C23.7536 51.1802 23.761 51.1639 23.7725 51.1504C23.8047 51.1157 23.8633 51.1307 23.9022 51.1576C24.0248 51.2443 24.0595 51.4111 24.0601 51.5618C24.066 51.5064 24.066 51.4504 24.0601 51.395C24.0546 51.3391 24.077 51.2841 24.1199 51.2479C24.1491 51.2324 24.1819 51.2248 24.2149 51.2258C24.2704 51.2179 24.3266 51.2338 24.3698 51.2694C24.4118 51.3267 24.4091 51.4053 24.3632 51.4596C24.3177 51.5111 24.2637 51.5543 24.2036 51.5875C24.1578 51.6148 24.1188 51.652 24.0894 51.6963C24.0859 51.7026 24.0831 51.7092 24.081 51.7161H23.7408C23.6623 51.6764 23.5896 51.6261 23.5249 51.5666Z" fill="#0062FD"/>
<path d="M21.5034 52.8713C21.4601 52.8357 21.4284 52.7881 21.4125 52.7344C21.3972 52.6787 21.4239 52.6201 21.4759 52.595C21.5356 52.5729 21.5954 52.613 21.6433 52.6548C21.6911 52.6967 21.7443 52.7421 21.8065 52.7338C21.7421 52.6752 21.7128 52.5873 21.7294 52.5018C21.732 52.4843 21.7395 52.468 21.7509 52.4545C21.7832 52.4198 21.8418 52.4348 21.8807 52.4623C22.0032 52.5484 22.0373 52.7152 22.0385 52.8659C22.0445 52.8107 22.0445 52.7549 22.0385 52.6997C22.0338 52.6433 22.0573 52.5882 22.1013 52.5526C22.1304 52.5366 22.1632 52.5288 22.1964 52.5299C22.2519 52.522 22.3082 52.5381 22.3512 52.5741C22.3932 52.6312 22.3905 52.7096 22.3447 52.7637C22.2991 52.815 22.2451 52.8583 22.185 52.8916C22.1393 52.9191 22.1003 52.9565 22.0708 53.001C22.0672 53.007 22.0644 53.0135 22.0624 53.0202H21.7156C21.6386 52.9802 21.5672 52.9301 21.5034 52.8713Z" fill="#0062FD"/>
<g opacity="0.08">
<path d="M18.1863 17.4006C18.1863 18.1149 17.6073 18.694 16.893 18.694C16.1787 18.694 15.5996 18.1149 15.5996 17.4006C15.5996 16.6863 16.1787 16.1073 16.893 16.1073C17.6073 16.1073 18.1863 16.6863 18.1863 17.4006Z" fill="#0062FD"/>
<path d="M80.3779 27.7361C80.3779 28.4504 79.7989 29.0294 79.0846 29.0294C78.3703 29.0294 77.7912 28.4504 77.7912 27.7361C77.7912 27.0218 78.3703 26.4427 79.0846 26.4427C79.7989 26.4427 80.3779 27.0218 80.3779 27.7361Z" fill="#0062FD"/>
<path d="M57.1287 13.2934C57.1287 14.0077 56.5496 14.5867 55.8353 14.5867C55.121 14.5867 54.542 14.0077 54.542 13.2934C54.542 12.5791 55.121 12 55.8353 12C56.5496 12 57.1287 12.5791 57.1287 13.2934Z" fill="#0062FD"/>
<path d="M21.6472 24.5359C21.6472 25.733 20.6768 26.7035 19.4797 26.7035C18.2826 26.7035 17.3121 25.733 17.3121 24.5359C17.3121 23.3388 18.2826 22.3684 19.4797 22.3684C20.6768 22.3684 21.6472 23.3388 21.6472 24.5359Z" fill="#0062FD"/>
</g>
<path fill-rule="evenodd" clip-rule="evenodd" d="M41.2055 41.9821C39.6104 41.9821 38.3174 43.2752 38.3174 44.8702C38.3174 46.4652 39.6104 47.7583 41.2055 47.7583C42.8005 47.7583 44.0935 46.4652 44.0935 44.8702C44.0935 43.2752 42.8005 41.9821 41.2055 41.9821V41.9821Z" fill="#0062FD"/>
<path opacity="0.72" fill-rule="evenodd" clip-rule="evenodd" d="M41.2054 42.3181C42.6149 42.3181 43.7576 43.4607 43.7576 44.8702C43.7576 46.2797 42.6149 47.4223 41.2054 47.4223C39.7959 47.4223 38.6533 46.2797 38.6533 44.8702C38.6546 43.4612 39.7965 42.3193 41.2054 42.3181" fill="#0062FD"/>
<path fill-rule="evenodd" clip-rule="evenodd" d="M40.0112 45.0812L39.8715 44.9449C39.8413 44.9173 39.8242 44.8787 39.8242 44.8384C39.8242 44.798 39.8413 44.7595 39.8715 44.7319L41.0969 43.5351C41.1251 43.5056 41.1646 43.4889 41.206 43.4889C41.2473 43.4889 41.2868 43.5056 41.3151 43.5351L42.5404 44.7308C42.57 44.7587 42.5867 44.7972 42.5867 44.8373C42.5867 44.8775 42.57 44.9159 42.5404 44.9438L42.4007 45.0801C42.3722 45.109 42.3328 45.1253 42.2916 45.1253C42.2505 45.1253 42.2111 45.109 42.1825 45.0801L41.458 44.3347V46.1034C41.4583 46.1425 41.4426 46.1802 41.4143 46.208C41.386 46.2358 41.3476 46.2514 41.3074 46.2514H41.1056C41.0218 46.2514 40.9539 46.1851 40.9539 46.1034V44.3369L40.2294 45.0822C40.2007 45.111 40.1612 45.1271 40.1201 45.1269C40.0789 45.1267 40.0396 45.1102 40.0112 45.0812V45.0812Z" fill="#0062FD"/>
<path d="M20.1848 52.0796C20.1848 52.0796 21.5439 47.6238 19.9719 45.8389C18.7957 44.5037 17.4605 44.6633 16.8626 44.8284C16.5497 44.912 16.2892 45.1286 16.1498 45.4209C15.9406 45.8718 15.9782 46.6037 17.454 47.4581C19.9241 48.8884 20.0777 50.8503 20.0777 50.8503L20.1848 52.0796Z" fill="#0062FD"/>
<path d="M20.24 52.1149C20.24 52.1149 18.6477 48.8764 18.2106 48.9458C18.0031 48.9799 17.9074 49.185 17.8638 49.3895C17.8101 49.6548 17.8404 49.9302 17.9505 50.1776C18.1765 50.6978 18.7834 51.6814 20.24 52.1149Z" fill="#0062FD"/>
<path d="M20.1926 52.1149C20.1926 52.1149 21.7843 48.8764 22.2214 48.9458C22.4295 48.9799 22.5252 49.185 22.5682 49.3895C22.6219 49.6548 22.5916 49.9302 22.4815 50.1776C22.2555 50.6978 21.648 51.6814 20.1926 52.1149Z" fill="#0062FD"/>
<path fill-rule="evenodd" clip-rule="evenodd" d="M17.0287 45.4454C17.0369 45.419 17.065 45.4044 17.0913 45.4126L17.0764 45.4604C17.0913 45.4126 17.0913 45.4126 17.0913 45.4126L17.0916 45.4127L17.0923 45.4129L17.0947 45.4137L17.1038 45.4167C17.1117 45.4194 17.1232 45.4234 17.1381 45.4287C17.1679 45.4395 17.2113 45.4559 17.266 45.4786C17.3753 45.5241 17.53 45.5949 17.7127 45.6967C18.0779 45.9002 18.5553 46.228 19.0045 46.7251C19.9044 47.7211 20.6859 49.3914 20.235 52.0878C20.2304 52.1151 20.2047 52.1335 20.1774 52.1289C20.1502 52.1244 20.1318 52.0986 20.1364 52.0714C20.5824 49.4042 19.8092 47.7649 18.9303 46.7922C18.49 46.3049 18.0219 45.9835 17.664 45.784C17.4851 45.6843 17.3338 45.6151 17.2276 45.571C17.1745 45.5489 17.1326 45.533 17.1042 45.5228C17.09 45.5177 17.0791 45.5139 17.0719 45.5115L17.0638 45.5088L17.0619 45.5082L17.0615 45.5081C17.0351 45.4998 17.0204 45.4717 17.0287 45.4454Z" fill="#0062FD"/>
<path fill-rule="evenodd" clip-rule="evenodd" d="M19.4582 45.8815C19.4736 45.9044 19.4676 45.9354 19.4447 45.9509L19.4446 45.951L19.4437 45.9516L19.4397 45.9544C19.4361 45.957 19.4306 45.9609 19.4237 45.9662C19.4098 45.9768 19.3899 45.9928 19.3665 46.0136C19.3195 46.0555 19.2588 46.1167 19.2035 46.1943C19.093 46.3494 19.0067 46.5659 19.0883 46.8254C19.0966 46.8518 19.082 46.8798 19.0556 46.8881C19.0293 46.8964 19.0012 46.8818 18.9929 46.8554C18.8988 46.5559 19.0005 46.3069 19.122 46.1363C19.1828 46.051 19.249 45.9843 19.3 45.9389C19.3256 45.9162 19.3474 45.8987 19.363 45.8868C19.3708 45.8808 19.3771 45.8762 19.3815 45.8731L19.3867 45.8694L19.3881 45.8684L19.3886 45.8681L19.3888 45.868C19.3888 45.868 19.3888 45.868 19.4158 45.908L19.3888 45.868C19.4117 45.8526 19.4428 45.8586 19.4582 45.8815Z" fill="#0062FD"/>
<path fill-rule="evenodd" clip-rule="evenodd" d="M17.5138 46.2757L17.5143 46.2753L17.5166 46.2729C17.5188 46.2708 17.5223 46.2676 17.5269 46.2635C17.536 46.2552 17.5498 46.2434 17.5677 46.2297C17.6036 46.2021 17.6553 46.1674 17.7189 46.1382C17.8458 46.0801 18.017 46.0456 18.2052 46.1324C18.2303 46.144 18.26 46.133 18.2716 46.108C18.2831 46.0829 18.2722 46.0532 18.2471 46.0416C18.0246 45.9389 17.8217 45.9812 17.6773 46.0473C17.6052 46.0803 17.547 46.1195 17.5068 46.1504C17.4866 46.1659 17.4709 46.1794 17.46 46.1891C17.4546 46.194 17.4503 46.198 17.4474 46.2008L17.4439 46.2042L17.443 46.2051L17.4427 46.2055L17.4425 46.2056C17.4425 46.2056 17.4425 46.2056 17.4781 46.2407L17.4425 46.2056C17.4231 46.2253 17.4234 46.257 17.4431 46.2764C17.4628 46.2957 17.4944 46.2954 17.5138 46.2757Z" fill="#0062FD"/>
<path fill-rule="evenodd" clip-rule="evenodd" d="M19.0846 48.011L19.0849 48.0109L19.0859 48.0104L19.0904 48.0082C19.0945 48.0062 19.1006 48.0034 19.1084 47.9998C19.1242 47.9927 19.147 47.9829 19.175 47.9722C19.2311 47.9507 19.3065 47.9263 19.3858 47.9131C19.4656 47.8998 19.545 47.8986 19.6114 47.9199C19.6755 47.9404 19.7292 47.9822 19.7615 48.0612C19.7719 48.0868 19.8011 48.099 19.8267 48.0886C19.8522 48.0782 19.8645 48.049 19.854 48.0234C19.8098 47.915 19.732 47.8535 19.6419 47.8247C19.5541 47.7965 19.4568 47.7998 19.3693 47.8144C19.2812 47.8291 19.199 47.8559 19.1392 47.8788C19.1092 47.8903 19.0846 47.9009 19.0673 47.9087C19.0587 47.9126 19.0519 47.9158 19.0472 47.918L19.0417 47.9207L19.0402 47.9214L19.0398 47.9216L19.0396 47.9217C19.0396 47.9217 19.0396 47.9217 19.0621 47.9663L19.0396 47.9217C19.015 47.9341 19.005 47.9642 19.0175 47.9889C19.0299 48.0135 19.06 48.0234 19.0846 48.011Z" fill="#0062FD"/>
<path fill-rule="evenodd" clip-rule="evenodd" d="M18.1943 49.5205C18.217 49.5048 18.2481 49.5106 18.2638 49.5333L18.2227 49.5617L18.1815 49.5901C18.1658 49.5673 18.1715 49.5362 18.1943 49.5205ZM18.2227 49.5617C18.1815 49.5901 18.1815 49.5901 18.1815 49.5901L18.2004 49.6174C18.2127 49.6352 18.2309 49.6613 18.2541 49.6946C18.3004 49.7611 18.367 49.8563 18.4479 49.9708C18.6097 50.1997 18.8289 50.5062 19.0582 50.8161C19.2874 51.1259 19.5271 51.4397 19.7301 51.6829C19.8315 51.8044 19.9244 51.9091 20.0025 51.9871C20.0416 52.0261 20.0776 52.0591 20.1097 52.0843C20.1408 52.1088 20.1719 52.129 20.2006 52.1385C20.2268 52.1471 20.2551 52.1329 20.2637 52.1066C20.2723 52.0804 20.2581 52.0521 20.2319 52.0435C20.2202 52.0396 20.2003 52.0284 20.1715 52.0057C20.1437 51.9838 20.1107 51.9538 20.0732 51.9163C19.9981 51.8415 19.9075 51.7394 19.8069 51.6188C19.6058 51.3778 19.3674 51.0659 19.1385 50.7567C18.9098 50.4475 18.6911 50.1417 18.5296 49.9131C18.4488 49.7987 18.3824 49.7038 18.3361 49.6374C18.313 49.6042 18.2949 49.5782 18.2826 49.5604L18.2638 49.5333C18.2638 49.5333 18.2638 49.5333 18.2227 49.5617Z" fill="#0062FD"/>
<path fill-rule="evenodd" clip-rule="evenodd" d="M18.019 49.9402C18.019 49.9125 18.0413 49.8902 18.069 49.8902H18.4588C18.4864 49.8902 18.5088 49.9125 18.5088 49.9402C18.5088 49.9678 18.4864 49.9902 18.4588 49.9902H18.069C18.0413 49.9902 18.019 49.9678 18.019 49.9402Z" fill="#0062FD"/>
<path fill-rule="evenodd" clip-rule="evenodd" d="M18.486 50.8242C18.4872 50.7966 18.5105 50.7752 18.5381 50.7764L19.1498 50.8027C19.1774 50.8039 19.1988 50.8272 19.1976 50.8548C19.1964 50.8824 19.1731 50.9038 19.1455 50.9026L18.5338 50.8763C18.5062 50.8751 18.4848 50.8518 18.486 50.8242Z" fill="#0062FD"/>
<path fill-rule="evenodd" clip-rule="evenodd" d="M18.9186 50.0682C18.9456 50.0738 18.9629 50.1003 18.9573 50.1273L18.8909 50.446C18.8853 50.4731 18.8588 50.4904 18.8318 50.4848C18.8048 50.4792 18.7874 50.4527 18.793 50.4257L18.8594 50.1069C18.865 50.0799 18.8915 50.0626 18.9186 50.0682Z" fill="#0062FD"/>
<path fill-rule="evenodd" clip-rule="evenodd" d="M19.5604 51.0365C19.588 51.0376 19.6094 51.0609 19.6083 51.0885L19.5963 51.3779C19.5952 51.4055 19.5719 51.4269 19.5443 51.4258C19.5167 51.4246 19.4953 51.4014 19.4964 51.3738L19.5084 51.0844C19.5095 51.0568 19.5328 51.0353 19.5604 51.0365Z" fill="#0062FD"/>
<path fill-rule="evenodd" clip-rule="evenodd" d="M22.1692 49.5332C22.1849 49.5105 22.2161 49.5048 22.2388 49.5205C22.2615 49.5362 22.2672 49.5674 22.2515 49.5901L22.2104 49.5617L22.1692 49.5332ZM22.1692 49.5332C22.1692 49.5332 22.1692 49.5332 22.2104 49.5617C22.2515 49.5901 22.2515 49.5901 22.2515 49.5901L22.2326 49.6174C22.2202 49.6352 22.202 49.6613 22.1788 49.6946C22.1323 49.7611 22.0656 49.8563 21.9846 49.9708C21.8225 50.1998 21.603 50.5063 21.3734 50.8162C21.144 51.1259 20.904 51.4397 20.7012 51.6829C20.5998 51.8044 20.507 51.9091 20.4291 51.9871C20.3902 52.026 20.3543 52.059 20.3223 52.0843C20.2914 52.1088 20.2605 52.1289 20.232 52.1384C20.2058 52.1471 20.1775 52.133 20.1688 52.1068C20.1601 52.0806 20.1742 52.0523 20.2004 52.0435C20.2119 52.0397 20.2316 52.0285 20.2603 52.0058C20.2881 51.9839 20.3209 51.9539 20.3584 51.9164C20.4332 51.8415 20.5238 51.7394 20.6244 51.6188C20.8254 51.3778 21.064 51.0659 21.2931 50.7566C21.5221 50.4475 21.7411 50.1417 21.903 49.913C21.9839 49.7987 22.0504 49.7037 22.0968 49.6374C22.12 49.6042 22.1381 49.5781 22.1504 49.5604L22.1692 49.5332Z" fill="#0062FD"/>
<path fill-rule="evenodd" clip-rule="evenodd" d="M21.924 49.9402C21.924 49.9125 21.9464 49.8902 21.974 49.8902H22.3639C22.3915 49.8902 22.4139 49.9125 22.4139 49.9402C22.4139 49.9678 22.3915 49.9902 22.3639 49.9902H21.974C21.9464 49.9902 21.924 49.9678 21.924 49.9402Z" fill="#0062FD"/>
<path fill-rule="evenodd" clip-rule="evenodd" d="M21.9468 50.8242C21.948 50.8518 21.9266 50.8751 21.899 50.8763L21.2873 50.9026C21.2597 50.9038 21.2364 50.8824 21.2352 50.8548C21.234 50.8272 21.2554 50.8039 21.283 50.8027L21.8947 50.7764C21.9223 50.7752 21.9456 50.7966 21.9468 50.8242Z" fill="#0062FD"/>
<path fill-rule="evenodd" clip-rule="evenodd" d="M21.5142 50.0682C21.5413 50.0626 21.5677 50.0799 21.5734 50.1069L21.6397 50.4257C21.6454 50.4527 21.628 50.4792 21.601 50.4848C21.574 50.4904 21.5475 50.4731 21.5418 50.446L21.4755 50.1273C21.4698 50.1003 21.4872 50.0738 21.5142 50.0682Z" fill="#0062FD"/>
<path fill-rule="evenodd" clip-rule="evenodd" d="M20.8724 51.0365C20.9 51.0353 20.9233 51.0568 20.9245 51.0844L20.9364 51.3738C20.9376 51.4014 20.9161 51.4246 20.8885 51.4258C20.8609 51.4269 20.8377 51.4055 20.8365 51.3779L20.8246 51.0885C20.8234 51.0609 20.8449 51.0376 20.8724 51.0365Z" fill="#0062FD"/>
<defs>
<linearGradient id="paint0_linear_1205_6039" x1="35.7252" y1="27.4479" x2="26.0378" y2="56.0529" gradientUnits="userSpaceOnUse">
<stop stop-color="#00A76F"/>
<stop offset="1" stop-color="#007867"/>
</linearGradient>
</defs>
</svg>
