<svg width="34" height="33" viewBox="0 0 34 33" fill="none" xmlns="http://www.w3.org/2000/svg">
<g clip-path="url(#clip0_445_3788)">
<path fill-rule="evenodd" clip-rule="evenodd" d="M7.29017 16.0466C7.29017 15.0043 7.47252 14.0049 7.79838 13.0677L2.09787 8.93799C0.986837 11.0779 0.361023 13.4894 0.361023 16.0466C0.361023 18.6018 0.986308 21.0115 2.09549 23.1502L7.79283 19.0124C7.47014 18.0795 7.29017 17.0838 7.29017 16.0466Z" fill="#FBBC05"/>
<path fill-rule="evenodd" clip-rule="evenodd" d="M17.2989 6.56453C19.6856 6.56453 21.8414 7.36685 23.5351 8.67966L28.4624 4.01163C25.4599 1.53169 21.6104 0 17.2989 0C10.6053 0 4.85243 3.63153 2.09784 8.93791L7.79808 13.0676C9.11155 9.28516 12.8556 6.56453 17.2989 6.56453Z" fill="#EA4335"/>
<path fill-rule="evenodd" clip-rule="evenodd" d="M17.2989 25.5285C12.8559 25.5285 9.11182 22.8079 7.79835 19.0254L2.09784 23.1544C4.85243 28.4615 10.6053 32.093 17.2989 32.093C21.4302 32.093 25.3745 30.7012 28.3347 28.0937L22.9239 24.1252C21.3971 25.0376 19.4745 25.5285 17.2989 25.5285Z" fill="#34A853"/>
<path fill-rule="evenodd" clip-rule="evenodd" d="M33.4668 16.0464C33.4668 15.0981 33.3127 14.0769 33.0817 13.1289H17.299V19.3286H26.3838C25.9295 21.4425 24.6932 23.0675 22.9239 24.125L28.3347 28.0935C31.4442 25.3556 33.4668 21.2768 33.4668 16.0464Z" fill="#4285F4"/>
</g>
<defs>
<clipPath id="clip0_445_3788">
<rect width="33.8278" height="32.093" fill="white"/>
</clipPath>
</defs>
</svg>
