<svg width="25" height="29" viewBox="0 0 25 29" fill="none" xmlns="http://www.w3.org/2000/svg">
<path d="M17.984 0C16.2572 0.199547 14.6691 1.04281 13.5366 2.36155C12.984 2.97209 12.5683 3.69365 12.3172 4.4779C12.0662 5.26215 11.9855 6.09099 12.0808 6.90893C12.949 6.89165 13.8023 6.68081 14.5787 6.29178C15.355 5.90276 16.0347 5.34536 16.5682 4.66024C17.1048 4.01821 17.5067 3.27473 17.75 2.47409C17.9932 1.67345 18.0728 0.832044 17.984 0Z" fill="black"/>
<path d="M24.1528 9.63322C23.4902 8.76862 22.6462 8.05974 21.6801 7.55646C20.714 7.05318 19.6494 6.76773 18.5611 6.72021C15.9367 6.72021 14.8252 7.95314 13.0022 7.95314C11.1222 7.95314 9.69351 6.72451 7.4234 6.72451C6.18719 6.78654 4.98473 7.14888 3.92006 7.78017C2.85539 8.41145 1.96059 9.29266 1.31309 10.3475C-0.804165 13.5663 -0.441289 19.6195 2.98888 24.7769C4.21609 26.6212 5.85617 28.6956 7.99914 28.7142C9.90781 28.7328 10.445 27.5141 13.0294 27.5013C15.6138 27.4884 16.1053 28.7299 18.0082 28.7099C20.1512 28.6942 21.8827 26.3955 23.1099 24.5511C23.8505 23.4542 24.4835 22.2882 25 21.0695C23.8612 20.656 22.8661 19.9221 22.1347 18.9562C21.4032 17.9904 20.9664 16.8337 20.8769 15.6254C20.7874 14.4172 21.0489 13.2088 21.6301 12.1457C22.2113 11.0826 23.0874 10.2101 24.1528 9.63322Z" fill="black"/>
</svg>
